<svg width="1024" height="414" viewBox="0 0 1024 414" fill="none" xmlns="http://www.w3.org/2000/svg">
<g filter="url(#filter0_i)">
<path d="M591.066 238.692C585.62 238.692 581.058 241.194 577.358 246.183C573.676 251.176 571.826 258.184 571.826 267.202C571.826 276.24 573.584 283.159 577.109 287.98C580.627 292.817 585.249 295.225 590.983 295.225C596.714 295.225 601.369 292.786 604.945 287.893C608.52 283.017 610.312 276.038 610.312 266.952C610.312 257.873 608.462 250.885 604.773 246.005C601.089 241.131 596.519 238.692 591.066 238.692ZM590.983 328.412C575.038 328.412 562.036 323.194 551.986 312.759C541.95 302.316 536.929 287.077 536.929 267.044C536.929 246.998 542.007 231.821 552.162 221.486C562.321 211.165 575.433 206 591.496 206C607.555 206 620.528 211.072 630.395 221.245C640.28 231.399 645.215 246.792 645.215 267.379C645.215 287.98 640.166 303.304 630.059 313.36C619.952 323.394 606.935 328.412 590.983 328.412" fill="#414042"/>
</g>
<g filter="url(#filter1_i)">
<path d="M692.935 239.872V290.796C692.935 293.174 693.11 294.673 693.451 295.302C693.789 295.928 694.813 296.242 696.511 296.242C702.76 296.242 707.494 293.907 710.731 289.253C713.974 284.604 715.579 276.863 715.579 266.022C715.579 255.175 713.901 248.109 710.565 244.826C707.212 241.533 701.902 239.872 694.638 239.872H692.935ZM660.248 318.882V216.733C660.248 213.894 660.954 211.653 662.379 209.991C663.795 208.354 665.638 207.523 667.915 207.523H696.348C714.392 207.523 728.098 212.075 737.454 221.156C746.826 230.235 751.512 244.53 751.512 264.056C751.512 305.83 733.685 326.712 698.042 326.712H668.933C663.148 326.712 660.248 324.108 660.248 318.882" fill="#414042"/>
</g>
<g filter="url(#filter2_i)">
<path d="M816.881 238.692C811.434 238.692 806.86 241.194 803.165 246.183C799.485 251.176 797.642 258.184 797.642 267.202C797.642 276.24 799.405 283.159 802.919 287.98C806.433 292.817 811.06 295.225 816.793 295.225C822.526 295.225 827.184 292.786 830.755 287.893C834.332 283.017 836.124 276.038 836.124 266.952C836.124 257.873 834.277 250.885 830.588 246.005C826.898 241.131 822.334 238.692 816.881 238.692ZM816.793 328.412C800.843 328.412 787.849 323.194 777.808 312.759C767.76 302.316 762.738 287.077 762.738 267.044C762.738 246.998 767.816 231.821 777.97 221.486C788.136 211.165 801.241 206 817.309 206C833.372 206 846.334 211.072 856.213 221.245C866.091 231.399 871.025 246.792 871.025 267.379C871.025 287.98 865.975 303.304 855.869 313.36C845.767 323.394 832.738 328.412 816.793 328.412" fill="#414042"/>
</g>
<g filter="url(#filter3_i)">
<path d="M934.482 323.999C934.482 326.255 928.87 327.4 917.628 327.4C906.396 327.4 900.767 326.255 900.767 323.999V238.52H880.341C878.409 238.52 877.045 235.916 876.254 230.681C875.913 228.19 875.75 225.64 875.75 223.025C875.75 220.425 875.913 217.864 876.254 215.368C877.045 210.148 878.409 207.523 880.341 207.523H954.405C956.334 207.523 957.691 210.148 958.495 215.368C958.828 217.864 959 220.425 959 223.025C959 225.64 958.828 228.19 958.495 230.681C957.691 235.916 956.334 238.52 954.405 238.52H934.482V323.999Z" fill="#414042"/>
</g>
<g filter="url(#filter4_i)">
<path d="M506.821 263.496C497.655 263.354 487.164 265.265 487.164 265.265V283.155H497.713L497.596 291.13C497.596 294.084 494.667 295.568 488.826 295.568C482.978 295.568 477.813 293.092 473.332 288.153C468.841 283.208 466.608 275.98 466.608 266.455C466.608 256.91 468.79 249.873 473.16 245.333C477.522 240.796 483.239 238.521 490.271 238.521C493.225 238.521 496.284 238.997 499.464 239.97C502.646 240.934 504.771 241.837 505.855 242.683C506.931 243.553 507.953 243.965 508.92 243.965C509.882 243.965 511.44 242.84 513.595 240.564C515.753 238.294 517.686 234.855 519.392 230.268C521.09 225.658 521.941 222.125 521.941 219.618C521.941 217.132 521.886 215.417 521.776 214.512C519.392 211.903 514.991 209.834 508.573 208.296C502.167 206.762 494.984 206.001 487.038 206.001C469.553 206.001 455.881 211.505 446.008 222.514C436.127 233.527 431.195 247.824 431.195 265.422C431.195 286.084 436.243 301.747 446.338 312.416C456.451 323.084 469.728 328.412 486.189 328.412C495.041 328.412 502.898 327.651 509.763 326.117C516.635 324.589 521.203 323.021 523.476 321.434L524.157 268.154C524.157 265.058 515.987 263.653 506.821 263.496Z" fill="#414042"/>
</g>
<path d="M363.642 264.976C363.642 264.976 363.151 261.969 362.865 261.996L308.3 267.261C303.958 267.68 300.586 271.143 300.281 275.493L298.782 296.979L256.568 299.991L253.697 280.518C253.058 276.187 249.275 272.922 244.897 272.922H187.307C182.931 272.922 179.149 276.187 178.509 280.518L175.636 299.991L133.422 296.979L131.923 275.493C131.619 271.141 128.247 267.679 123.905 267.259L69.3127 261.996C69.0307 261.969 68.8241 264.979 68.5421 264.979L68.4682 276.787L114.703 284.243L116.217 305.92C116.523 310.309 120.064 313.857 124.455 314.172L182.593 318.32C182.813 318.335 183.03 318.344 183.248 318.344C187.616 318.344 191.393 315.077 192.032 310.746L194.986 290.71H237.22L240.174 310.746C240.812 315.076 244.593 318.342 248.968 318.342C249.182 318.342 249.396 318.335 249.606 318.32L307.751 314.172C312.141 313.857 315.683 310.309 315.989 305.92L317.502 284.243L363.717 276.754L363.642 264.976Z" fill="white"/>
<g filter="url(#filter5_d)">
<path d="M68.5414 175.938V247.593V256.694V264.976C68.7043 264.978 68.8672 264.984 69.0285 264.999L123.615 270.262C126.474 270.538 128.715 272.839 128.914 275.705L130.597 299.801L178.213 303.198L181.493 280.959C181.918 278.075 184.391 275.938 187.308 275.938H244.898C247.813 275.938 250.287 278.075 250.712 280.959L253.992 303.198L301.609 299.801L303.291 275.705C303.491 272.839 305.731 270.539 308.59 270.262L363.155 264.999C363.317 264.984 363.478 264.978 363.641 264.976V257.872L363.663 257.864V175.938H363.866C371.097 166.709 377.788 156.983 384.205 146.608C375.683 132.1 365.241 119.135 354.08 107.123C343.728 112.334 333.674 118.236 324.178 124.517C319.426 119.794 314.074 115.93 308.816 111.892C303.651 107.743 297.83 104.701 292.309 101.157C293.953 88.9164 294.766 76.8654 295.093 64.2881C280.848 57.1187 265.657 52.3652 250.291 48.951C244.156 59.2617 238.546 70.4274 233.66 81.3428C227.866 80.3747 222.045 80.0157 216.216 79.9464V79.9373C216.176 79.9373 216.138 79.9464 216.103 79.9464C216.067 79.9464 216.029 79.9373 215.993 79.9373V79.9464C210.154 80.0157 204.337 80.3747 198.542 81.3428C193.659 70.4274 188.052 59.2617 181.908 48.951C166.549 52.3652 151.357 57.1187 137.113 64.2881C137.439 76.8654 138.252 88.9164 139.9 101.157C134.369 104.701 128.555 107.743 123.388 111.892C118.139 115.93 112.778 119.794 108.024 124.517C98.5279 118.236 88.4766 112.334 78.1222 107.123C66.961 119.135 56.5251 132.1 48 146.608C54.4138 156.983 61.1097 166.709 68.3394 175.938H68.5414Z" fill="url(#paint0_linear)"/>
</g>
<g filter="url(#filter6_d)">
<path d="M314.671 281.486L312.981 305.71C312.777 308.63 310.455 310.954 307.535 311.163L249.391 315.312C249.249 315.323 249.108 315.327 248.967 315.327C246.078 315.327 243.585 313.207 243.158 310.305L239.824 287.693H192.382L189.047 310.305C188.599 313.349 185.879 315.537 182.814 315.312L124.671 311.163C121.751 310.954 119.429 308.63 119.225 305.71L117.534 281.486L68.4513 276.754C68.4739 282.029 68.5418 287.808 68.5418 288.959C68.5418 340.797 134.301 365.713 216.002 366H216.102H216.203C297.904 365.713 363.641 340.797 363.641 288.959C363.641 287.787 363.712 282.032 363.736 276.754L314.671 281.486Z" fill="url(#paint1_linear)"/>
</g>
<path d="M171.619 212.082C171.619 230.257 156.892 244.98 138.723 244.98C120.563 244.98 105.832 230.257 105.832 212.082C105.832 193.918 120.563 179.203 138.723 179.203C156.892 179.203 171.619 193.918 171.619 212.082Z" fill="white"/>
<path d="M163.703 214.033C163.703 226.088 153.932 235.859 141.868 235.859C129.809 235.859 120.033 226.088 120.033 214.033C120.033 201.977 129.809 192.197 141.868 192.197C153.932 192.197 163.703 201.977 163.703 214.033Z" fill="#414042"/>
<path d="M216.1 247.973C210.252 247.973 205.512 243.663 205.512 238.35V208.066C205.512 202.758 210.252 198.443 216.1 198.443C221.948 198.443 226.699 202.758 226.699 208.066V238.35C226.699 243.663 221.948 247.973 216.1 247.973Z" fill="white"/>
<path d="M260.587 212.082C260.587 230.257 275.313 244.98 293.486 244.98C311.644 244.98 326.374 230.257 326.374 212.082C326.374 193.918 311.644 179.203 293.486 179.203C275.313 179.203 260.587 193.918 260.587 212.082Z" fill="white"/>
<path d="M268.504 214.033C268.504 226.088 278.272 235.859 290.327 235.859C302.395 235.859 312.163 226.088 312.163 214.033C312.163 201.977 302.395 192.197 290.327 192.197C278.272 192.197 268.504 201.977 268.504 214.033Z" fill="#414042"/>
<g filter="url(#filter7_i)">
<path d="M445.364 193.42C441.892 193.42 439.12 192.16 437.048 189.64C434.976 187.12 433.94 183.816 433.94 179.728C433.94 175.248 434.976 171.02 437.048 167.044C439.12 163.012 441.864 159.792 445.28 157.384C448.752 154.92 452.42 153.688 456.284 153.688C457.516 153.688 458.328 153.94 458.72 154.444C459.168 154.892 459.532 155.732 459.812 156.964C460.988 156.74 462.22 156.628 463.508 156.628C466.252 156.628 467.624 157.608 467.624 159.568C467.624 160.744 467.204 163.544 466.364 167.968C465.076 174.408 464.432 178.888 464.432 181.408C464.432 182.248 464.628 182.92 465.02 183.424C465.468 183.928 466.028 184.18 466.7 184.18C467.764 184.18 469.052 183.508 470.564 182.164C472.076 180.764 474.12 178.524 476.696 175.444C477.368 174.66 478.124 174.268 478.964 174.268C479.692 174.268 480.252 174.604 480.644 175.276C481.092 175.948 481.316 176.872 481.316 178.048C481.316 180.288 480.784 182.024 479.72 183.256C477.424 186.112 474.988 188.52 472.412 190.48C469.836 192.44 467.344 193.42 464.936 193.42C463.088 193.42 461.38 192.804 459.812 191.572C458.3 190.284 457.152 188.548 456.368 186.364C453.456 191.068 449.788 193.42 445.364 193.42ZM448.388 184.936C449.62 184.936 450.796 184.208 451.916 182.752C453.036 181.296 453.848 179.364 454.352 176.956L457.46 161.5C455.108 161.556 452.924 162.452 450.908 164.188C448.948 165.868 447.38 168.108 446.204 170.908C445.028 173.708 444.44 176.676 444.44 179.812C444.44 181.548 444.776 182.836 445.448 183.676C446.176 184.516 447.156 184.936 448.388 184.936ZM537.973 167.464C538.141 167.408 538.421 167.38 538.813 167.38C539.653 167.38 540.297 167.66 540.745 168.22C541.193 168.78 541.417 169.536 541.417 170.488C541.417 172.224 541.081 173.596 540.409 174.604C539.737 175.556 538.729 176.256 537.385 176.704C534.809 177.544 532.065 177.964 529.153 177.964C526.689 177.964 524.365 177.628 522.181 176.956C520.557 179.588 518.765 182.304 516.805 185.104C514.565 188.296 512.633 190.48 511.009 191.656C509.441 192.832 507.649 193.42 505.633 193.42C503.393 193.42 501.685 192.552 500.509 190.816C499.389 189.08 498.689 186.224 498.409 182.248L497.989 176.116C496.253 180.82 494.685 184.404 493.285 186.868C491.941 189.332 490.569 191.04 489.169 191.992C487.825 192.944 486.229 193.42 484.381 193.42C482.085 193.42 480.265 192.524 478.921 190.732C477.633 188.94 476.821 186.112 476.485 182.248C475.813 174.408 475.477 167.548 475.477 161.668V158.728C475.533 156.88 476.037 155.592 476.989 154.864C477.941 154.136 479.369 153.772 481.273 153.772C482.729 153.772 483.793 154.108 484.465 154.78C485.193 155.396 485.557 156.46 485.557 157.972C485.557 164.412 485.949 172.784 486.733 183.088C490.541 175.08 494.041 166.736 497.233 158.056C497.849 156.376 498.577 155.256 499.417 154.696C500.313 154.08 501.377 153.772 502.609 153.772C504.121 153.772 505.157 154.08 505.717 154.696C506.333 155.312 506.641 156.404 506.641 157.972C506.641 164.412 507.033 172.784 507.817 183.088C511.177 178.104 513.697 174.128 515.377 171.16C514.537 169.536 514.117 167.604 514.117 165.364C514.117 163.46 514.537 161.612 515.377 159.82C516.217 158.028 517.365 156.572 518.821 155.452C520.277 154.332 521.929 153.772 523.777 153.772C525.401 153.772 526.717 154.36 527.725 155.536C528.733 156.656 529.237 158.308 529.237 160.492C529.237 163.012 528.565 165.896 527.221 169.144C529.349 169.032 532.177 168.612 535.705 167.884L537.973 167.464ZM571.59 174.268C572.318 174.268 572.878 174.604 573.27 175.276C573.718 175.948 573.942 176.872 573.942 178.048C573.942 180.288 573.41 182.024 572.346 183.256C570.274 185.776 567.334 188.1 563.526 190.228C559.774 192.356 555.742 193.42 551.43 193.42C545.55 193.42 540.986 191.824 537.738 188.632C534.49 185.44 532.866 181.072 532.866 175.528C532.866 171.664 533.678 168.08 535.302 164.776C536.926 161.416 539.166 158.756 542.022 156.796C544.934 154.836 548.21 153.856 551.85 153.856C555.098 153.856 557.702 154.836 559.662 156.796C561.622 158.7 562.602 161.304 562.602 164.608C562.602 168.472 561.202 171.804 558.402 174.604C555.658 177.348 550.982 179.532 544.374 181.156C545.774 183.732 548.434 185.02 552.354 185.02C554.874 185.02 557.73 184.152 560.922 182.416C564.17 180.624 566.97 178.3 569.322 175.444C569.994 174.66 570.75 174.268 571.59 174.268ZM550.422 162.088C548.35 162.088 546.586 163.292 545.13 165.7C543.73 168.108 543.03 171.02 543.03 174.436V174.604C546.334 173.82 548.938 172.644 550.842 171.076C552.746 169.508 553.698 167.688 553.698 165.616C553.698 164.552 553.39 163.712 552.774 163.096C552.214 162.424 551.43 162.088 550.422 162.088ZM582.726 195.268C579.814 195.268 577.574 194.596 576.006 193.252C574.494 191.908 573.738 190.396 573.738 188.716C573.738 187.26 574.27 186 575.334 184.936C576.398 183.872 577.966 183.34 580.038 183.34C580.766 183.34 581.606 183.424 582.558 183.592C583.566 183.704 584.322 183.788 584.826 183.844C584.77 182.388 584.434 181.016 583.818 179.728C583.258 178.44 582.53 177.208 581.634 176.032C580.738 174.8 579.898 173.736 579.114 172.84C577.378 176.144 575.642 178.888 573.906 181.072C572.226 183.256 570.378 185.328 568.362 187.288C567.354 188.296 566.29 188.8 565.17 188.8C564.274 188.8 563.546 188.492 562.986 187.876C562.426 187.204 562.146 186.392 562.146 185.44C562.146 184.32 562.538 183.284 563.322 182.332L564.414 180.988C567.494 177.18 569.818 174.044 571.386 171.58C572.338 169.956 573.458 167.8 574.746 165.112C576.034 162.368 577.294 159.54 578.526 156.628C579.59 154.164 581.802 152.932 585.162 152.932C586.73 152.932 587.822 153.072 588.438 153.352C589.054 153.632 589.362 154.08 589.362 154.696C589.362 155.032 589.25 155.564 589.026 156.292C588.802 157.02 588.494 157.748 588.102 158.476C587.094 160.492 586.59 162.2 586.59 163.6C586.59 164.44 586.87 165.364 587.43 166.372C588.046 167.38 588.97 168.64 590.202 170.152C591.994 172.504 593.338 174.52 594.234 176.2C595.186 177.824 595.662 179.616 595.662 181.576C595.662 182.136 595.606 182.92 595.494 183.928C598.238 182.864 601.458 180.036 605.154 175.444C605.826 174.66 606.582 174.268 607.422 174.268C608.15 174.268 608.71 174.604 609.102 175.276C609.55 175.948 609.774 176.872 609.774 178.048C609.774 180.176 609.242 181.912 608.178 183.256C605.378 186.728 602.69 189.108 600.114 190.396C597.594 191.628 594.458 192.3 590.706 192.412C588.466 194.316 585.806 195.268 582.726 195.268ZM645.79 167.212C646.518 167.212 647.078 167.576 647.47 168.304C647.862 169.032 648.058 169.956 648.058 171.076C648.058 173.764 647.246 175.36 645.622 175.864C642.262 177.04 638.566 177.712 634.534 177.88C633.47 182.584 631.37 186.364 628.234 189.22C625.098 192.02 621.542 193.42 617.566 193.42C614.206 193.42 611.322 192.608 608.914 190.984C606.562 189.36 604.77 187.204 603.538 184.516C602.306 181.828 601.69 178.916 601.69 175.78C601.69 171.524 602.502 167.744 604.126 164.44C605.75 161.08 607.99 158.476 610.846 156.628C613.702 154.724 616.866 153.772 620.338 153.772C624.594 153.772 628.01 155.256 630.586 158.224C633.218 161.136 634.758 164.748 635.206 169.06C637.838 168.892 640.974 168.332 644.614 167.38C645.062 167.268 645.454 167.212 645.79 167.212ZM618.238 184.516C620.03 184.516 621.57 183.788 622.858 182.332C624.202 180.876 625.098 178.776 625.546 176.032C623.81 174.856 622.466 173.316 621.514 171.412C620.618 169.508 620.17 167.492 620.17 165.364C620.17 164.468 620.254 163.572 620.422 162.676H620.002C617.762 162.676 615.886 163.768 614.374 165.952C612.918 168.08 612.19 171.104 612.19 175.024C612.19 178.104 612.778 180.456 613.954 182.08C615.186 183.704 616.614 184.516 618.238 184.516ZM646.812 193.42C644.684 193.42 643.172 192.3 642.276 190.06C641.436 187.82 641.016 184.236 641.016 179.308C641.016 172.028 642.052 165.112 644.124 158.56C644.628 156.936 645.44 155.76 646.56 155.032C647.736 154.248 649.36 153.856 651.432 153.856C652.552 153.856 653.336 153.996 653.784 154.276C654.232 154.556 654.456 155.088 654.456 155.872C654.456 156.768 654.036 158.784 653.196 161.92C652.636 164.16 652.188 166.12 651.852 167.8C651.516 169.424 651.236 171.468 651.012 173.932C652.524 169.564 654.316 165.868 656.388 162.844C658.516 159.82 660.672 157.58 662.856 156.124C665.096 154.612 667.196 153.856 669.156 153.856C671.116 153.856 672.488 154.304 673.272 155.2C674.112 156.096 674.532 157.468 674.532 159.316C674.532 161.108 674 164.356 672.936 169.06C672.488 171.076 672.18 172.588 672.012 173.596C674.812 166.708 677.92 161.696 681.336 158.56C684.752 155.424 687.944 153.856 690.912 153.856C694.552 153.856 696.372 155.676 696.372 159.316C696.372 161.5 695.756 165.448 694.524 171.16C693.46 176.032 692.928 179.252 692.928 180.82C692.928 183.06 693.74 184.18 695.364 184.18C696.484 184.18 697.8 183.508 699.312 182.164C700.88 180.764 702.952 178.524 705.528 175.444C706.2 174.66 706.956 174.268 707.796 174.268C708.524 174.268 709.084 174.604 709.476 175.276C709.924 175.948 710.148 176.872 710.148 178.048C710.148 180.288 709.616 182.024 708.552 183.256C706.144 186.224 703.54 188.66 700.74 190.564C697.996 192.468 694.86 193.42 691.332 193.42C688.476 193.42 686.32 192.608 684.864 190.984C683.408 189.304 682.68 186.896 682.68 183.76C682.68 182.192 683.072 179.392 683.856 175.36C684.584 171.832 684.948 169.396 684.948 168.052C684.948 167.156 684.64 166.708 684.024 166.708C683.296 166.708 682.26 167.66 680.916 169.564C679.572 171.412 678.228 173.876 676.884 176.956C675.54 180.036 674.448 183.284 673.608 186.7C672.992 189.388 672.264 191.18 671.424 192.076C670.64 192.972 669.352 193.42 667.56 193.42C665.712 193.42 664.312 192.552 663.36 190.816C662.464 189.024 662.016 186.868 662.016 184.348C662.016 182.22 662.296 179.14 662.856 175.108C663.304 171.524 663.528 169.172 663.528 168.052C663.528 167.156 663.22 166.708 662.604 166.708C661.764 166.708 660.7 167.716 659.412 169.732C658.124 171.748 656.864 174.324 655.632 177.46C654.456 180.596 653.504 183.676 652.776 186.7C652.16 189.332 651.432 191.124 650.592 192.076C649.808 192.972 648.548 193.42 646.812 193.42ZM733.428 176.788C734.156 176.788 734.716 177.124 735.108 177.796C735.556 178.468 735.78 179.392 735.78 180.568C735.78 182.584 735.304 184.32 734.352 185.776C732.784 188.184 730.712 190.06 728.136 191.404C725.616 192.748 722.592 193.42 719.064 193.42C713.688 193.42 709.516 191.824 706.548 188.632C703.58 185.384 702.096 181.016 702.096 175.528C702.096 171.664 702.908 168.08 704.532 164.776C706.156 161.416 708.396 158.756 711.252 156.796C714.164 154.836 717.44 153.856 721.08 153.856C724.328 153.856 726.932 154.836 728.892 156.796C730.852 158.7 731.832 161.304 731.832 164.608C731.832 168.472 730.432 171.804 727.632 174.604C724.888 177.348 720.184 179.532 713.52 181.156C714.864 183.732 717.132 185.02 720.324 185.02C722.62 185.02 724.496 184.488 725.952 183.424C727.464 182.36 729.2 180.568 731.16 178.048C731.832 177.208 732.588 176.788 733.428 176.788ZM719.652 162.088C717.58 162.088 715.816 163.292 714.36 165.7C712.96 168.108 712.26 171.02 712.26 174.436V174.604C715.564 173.82 718.168 172.644 720.072 171.076C721.976 169.508 722.928 167.688 722.928 165.616C722.928 164.552 722.62 163.712 722.004 163.096C721.444 162.424 720.66 162.088 719.652 162.088Z" fill="#6D6E71"/>
</g>
<g filter="url(#filter8_d)">
<path d="M364 176.756L376 160.018L365.324 170.5L340.674 176.756H91.3764L68.0506 170.5L57.3744 160.018L68.0506 176.756H68V218.092C68 236.778 87.9863 252 112.527 252H159.33C183.87 252 203.857 236.778 203.857 218.092V190.93H228.144V218.092C228.144 236.778 248.13 252 272.67 252H319.474C344.014 252 364 236.778 364 218.092V176.756Z" fill="url(#paint2_linear)"/>
</g>
<defs>
<filter id="filter0_i" x="536.929" y="206" width="111.286" height="125.412" filterUnits="userSpaceOnUse" color-interpolation-filters="sRGB">
<feFlood flood-opacity="0" result="BackgroundImageFix"/>
<feBlend mode="normal" in="SourceGraphic" in2="BackgroundImageFix" result="shape"/>
<feColorMatrix in="SourceAlpha" type="matrix" values="0 0 0 0 0 0 0 0 0 0 0 0 0 0 0 0 0 0 127 0" result="hardAlpha"/>
<feOffset dx="5" dy="5"/>
<feGaussianBlur stdDeviation="1.5"/>
<feComposite in2="hardAlpha" operator="arithmetic" k2="-1" k3="1"/>
<feColorMatrix type="matrix" values="0 0 0 0 0 0 0 0 0 0 0 0 0 0 0 0 0 0 0.36 0"/>
<feBlend mode="normal" in2="shape" result="effect1_innerShadow"/>
</filter>
<filter id="filter1_i" x="660.248" y="207.523" width="94.264" height="122.189" filterUnits="userSpaceOnUse" color-interpolation-filters="sRGB">
<feFlood flood-opacity="0" result="BackgroundImageFix"/>
<feBlend mode="normal" in="SourceGraphic" in2="BackgroundImageFix" result="shape"/>
<feColorMatrix in="SourceAlpha" type="matrix" values="0 0 0 0 0 0 0 0 0 0 0 0 0 0 0 0 0 0 127 0" result="hardAlpha"/>
<feOffset dx="5" dy="5"/>
<feGaussianBlur stdDeviation="1.5"/>
<feComposite in2="hardAlpha" operator="arithmetic" k2="-1" k3="1"/>
<feColorMatrix type="matrix" values="0 0 0 0 0 0 0 0 0 0 0 0 0 0 0 0 0 0 0.36 0"/>
<feBlend mode="normal" in2="shape" result="effect1_innerShadow"/>
</filter>
<filter id="filter2_i" x="762.738" y="206" width="111.287" height="125.412" filterUnits="userSpaceOnUse" color-interpolation-filters="sRGB">
<feFlood flood-opacity="0" result="BackgroundImageFix"/>
<feBlend mode="normal" in="SourceGraphic" in2="BackgroundImageFix" result="shape"/>
<feColorMatrix in="SourceAlpha" type="matrix" values="0 0 0 0 0 0 0 0 0 0 0 0 0 0 0 0 0 0 127 0" result="hardAlpha"/>
<feOffset dx="5" dy="5"/>
<feGaussianBlur stdDeviation="1.5"/>
<feComposite in2="hardAlpha" operator="arithmetic" k2="-1" k3="1"/>
<feColorMatrix type="matrix" values="0 0 0 0 0 0 0 0 0 0 0 0 0 0 0 0 0 0 0.36 0"/>
<feBlend mode="normal" in2="shape" result="effect1_innerShadow"/>
</filter>
<filter id="filter3_i" x="875.75" y="207.523" width="86.2501" height="122.877" filterUnits="userSpaceOnUse" color-interpolation-filters="sRGB">
<feFlood flood-opacity="0" result="BackgroundImageFix"/>
<feBlend mode="normal" in="SourceGraphic" in2="BackgroundImageFix" result="shape"/>
<feColorMatrix in="SourceAlpha" type="matrix" values="0 0 0 0 0 0 0 0 0 0 0 0 0 0 0 0 0 0 127 0" result="hardAlpha"/>
<feOffset dx="5" dy="5"/>
<feGaussianBlur stdDeviation="1.5"/>
<feComposite in2="hardAlpha" operator="arithmetic" k2="-1" k3="1"/>
<feColorMatrix type="matrix" values="0 0 0 0 0 0 0 0 0 0 0 0 0 0 0 0 0 0 0.36 0"/>
<feBlend mode="normal" in2="shape" result="effect1_innerShadow"/>
</filter>
<filter id="filter4_i" x="431.195" y="206.001" width="95.962" height="125.412" filterUnits="userSpaceOnUse" color-interpolation-filters="sRGB">
<feFlood flood-opacity="0" result="BackgroundImageFix"/>
<feBlend mode="normal" in="SourceGraphic" in2="BackgroundImageFix" result="shape"/>
<feColorMatrix in="SourceAlpha" type="matrix" values="0 0 0 0 0 0 0 0 0 0 0 0 0 0 0 0 0 0 127 0" result="hardAlpha"/>
<feOffset dx="5" dy="5"/>
<feGaussianBlur stdDeviation="1.5"/>
<feComposite in2="hardAlpha" operator="arithmetic" k2="-1" k3="1"/>
<feColorMatrix type="matrix" values="0 0 0 0 0 0 0 0 0 0 0 0 0 0 0 0 0 0 0.36 0"/>
<feBlend mode="normal" in2="shape" result="effect1_innerShadow"/>
</filter>
<filter id="filter5_d" x="44" y="48.951" width="344.205" height="262.247" filterUnits="userSpaceOnUse" color-interpolation-filters="sRGB">
<feFlood flood-opacity="0" result="BackgroundImageFix"/>
<feColorMatrix in="SourceAlpha" type="matrix" values="0 0 0 0 0 0 0 0 0 0 0 0 0 0 0 0 0 0 127 0"/>
<feOffset dy="4"/>
<feGaussianBlur stdDeviation="2"/>
<feColorMatrix type="matrix" values="0 0 0 0 0 0 0 0 0 0 0 0 0 0 0 0 0 0 0.25 0"/>
<feBlend mode="normal" in2="BackgroundImageFix" result="effect1_dropShadow"/>
<feBlend mode="normal" in="SourceGraphic" in2="effect1_dropShadow" result="shape"/>
</filter>
<filter id="filter6_d" x="64.4513" y="276.754" width="303.285" height="97.2462" filterUnits="userSpaceOnUse" color-interpolation-filters="sRGB">
<feFlood flood-opacity="0" result="BackgroundImageFix"/>
<feColorMatrix in="SourceAlpha" type="matrix" values="0 0 0 0 0 0 0 0 0 0 0 0 0 0 0 0 0 0 127 0"/>
<feOffset dy="4"/>
<feGaussianBlur stdDeviation="2"/>
<feColorMatrix type="matrix" values="0 0 0 0 0 0 0 0 0 0 0 0 0 0 0 0 0 0 0.25 0"/>
<feBlend mode="normal" in2="BackgroundImageFix" result="effect1_dropShadow"/>
<feBlend mode="normal" in="SourceGraphic" in2="effect1_dropShadow" result="shape"/>
</filter>
<filter id="filter7_i" x="433.94" y="152.932" width="304.84" height="45.336" filterUnits="userSpaceOnUse" color-interpolation-filters="sRGB">
<feFlood flood-opacity="0" result="BackgroundImageFix"/>
<feBlend mode="normal" in="SourceGraphic" in2="BackgroundImageFix" result="shape"/>
<feColorMatrix in="SourceAlpha" type="matrix" values="0 0 0 0 0 0 0 0 0 0 0 0 0 0 0 0 0 0 127 0" result="hardAlpha"/>
<feOffset dx="3" dy="3"/>
<feGaussianBlur stdDeviation="2"/>
<feComposite in2="hardAlpha" operator="arithmetic" k2="-1" k3="1"/>
<feColorMatrix type="matrix" values="0 0 0 0 0 0 0 0 0 0 0 0 0 0 0 0 0 0 0.3 0"/>
<feBlend mode="normal" in2="shape" result="effect1_innerShadow"/>
</filter>
<filter id="filter8_d" x="53.3744" y="160.018" width="326.626" height="99.9822" filterUnits="userSpaceOnUse" color-interpolation-filters="sRGB">
<feFlood flood-opacity="0" result="BackgroundImageFix"/>
<feColorMatrix in="SourceAlpha" type="matrix" values="0 0 0 0 0 0 0 0 0 0 0 0 0 0 0 0 0 0 127 0"/>
<feOffset dy="4"/>
<feGaussianBlur stdDeviation="2"/>
<feColorMatrix type="matrix" values="0 0 0 0 0 0 0 0 0 0 0 0 0 0 0 0 0 0 0.25 0"/>
<feBlend mode="normal" in2="BackgroundImageFix" result="effect1_dropShadow"/>
<feBlend mode="normal" in="SourceGraphic" in2="effect1_dropShadow" result="shape"/>
</filter>
<linearGradient id="paint0_linear" x1="48" y1="176.075" x2="384.205" y2="176.075" gradientUnits="userSpaceOnUse">
<stop stop-color="#59C2FF"/>
<stop offset="1" stop-color="#1270E3"/>
</linearGradient>
<linearGradient id="paint1_linear" x1="68.4513" y1="321.377" x2="363.736" y2="321.377" gradientUnits="userSpaceOnUse">
<stop stop-color="#59C2FF"/>
<stop offset="1" stop-color="#1270E3"/>
</linearGradient>
<linearGradient id="paint2_linear" x1="57" y1="160" x2="376" y2="252" gradientUnits="userSpaceOnUse">
<stop stop-color="#FC60A8"/>
<stop offset="1" stop-color="#CE4BC1"/>
</linearGradient>
</defs>
</svg>
