<svg width="345" height="326" viewBox="0 0 345 326" fill="none" xmlns="http://www.w3.org/2000/svg">
<path d="M319.642 216.976C319.642 216.976 319.151 213.969 318.865 213.996L264.3 219.261C259.958 219.68 256.586 223.143 256.281 227.493L254.782 248.979L212.568 251.991L209.697 232.518C209.058 228.187 205.275 224.922 200.897 224.922H143.307C138.931 224.922 135.149 228.187 134.509 232.518L131.636 251.991L89.4223 248.979L87.9233 227.493C87.6187 223.141 84.2467 219.679 79.9049 219.259L25.3127 213.996C25.0307 213.969 24.8241 216.979 24.5421 216.979L24.4682 228.787L70.7027 236.243L72.2168 257.92C72.5229 262.309 76.0638 265.857 80.4553 266.172L138.593 270.32C138.813 270.335 139.03 270.344 139.248 270.344C143.616 270.344 147.393 267.077 148.032 262.746L150.986 242.71H193.22L196.174 262.746C196.812 267.076 200.593 270.342 204.968 270.342C205.182 270.342 205.396 270.335 205.606 270.32L263.751 266.172C268.141 265.857 271.683 262.309 271.989 257.92L273.502 236.243L319.717 228.754L319.642 216.976Z" fill="white"/>
<g filter="url(#filter0_d)">
<path d="M24.5414 127.938V199.593V208.694V216.976C24.7043 216.978 24.8672 216.984 25.0285 216.999L79.6147 222.262C82.474 222.538 84.715 224.839 84.9141 227.705L86.5971 251.801L134.213 255.198L137.493 232.959C137.918 230.075 140.391 227.938 143.308 227.938H200.898C203.813 227.938 206.287 230.075 206.712 232.959L209.992 255.198L257.609 251.801L259.291 227.705C259.491 224.839 261.731 222.539 264.59 222.262L319.155 216.999C319.317 216.984 319.478 216.978 319.641 216.976V209.872L319.663 209.864V127.938H319.866C327.097 118.709 333.788 108.983 340.205 98.6076C331.683 84.1 321.241 71.1351 310.08 59.1233C299.728 64.3337 289.674 70.2363 280.178 76.5174C275.426 71.7941 270.074 67.9305 264.816 63.8918C259.651 59.7431 253.83 56.7013 248.309 53.1574C249.953 40.9164 250.766 28.8654 251.093 16.2881C236.848 9.11869 221.657 4.36525 206.291 0.950974C200.156 11.2617 194.546 22.4274 189.66 33.3428C183.866 32.3747 178.045 32.0157 172.216 31.9464V31.9373C172.176 31.9373 172.138 31.9464 172.103 31.9464C172.067 31.9464 172.029 31.9373 171.993 31.9373V31.9464C166.154 32.0157 160.337 32.3747 154.542 33.3428C149.659 22.4274 144.052 11.2617 137.908 0.950974C122.549 4.36525 107.357 9.11869 93.1134 16.2881C93.4392 28.8654 94.252 40.9164 95.9004 53.1574C90.3688 56.7013 84.5551 59.7431 79.3885 63.8918C74.1389 67.9305 68.7777 71.7941 64.0243 76.5174C54.5279 70.2363 44.4766 64.3337 34.1222 59.1233C22.961 71.1351 12.5251 84.1 4 98.6076C10.4138 108.983 17.1097 118.709 24.3394 127.938H24.5414Z" fill="url(#paint0_linear)"/>
</g>
<g filter="url(#filter1_d)">
<path d="M270.671 233.486L268.981 257.71C268.777 260.63 266.455 262.954 263.535 263.163L205.391 267.312C205.249 267.323 205.108 267.327 204.967 267.327C202.078 267.327 199.585 265.207 199.158 262.305L195.824 239.693H148.382L145.047 262.305C144.599 265.349 141.879 267.537 138.814 267.312L80.6707 263.163C77.7511 262.954 75.4286 260.63 75.225 257.71L73.5345 233.486L24.4513 228.754C24.4739 234.029 24.5418 239.808 24.5418 240.959C24.5418 292.797 90.3012 317.713 172.003 318H172.102H172.203C253.904 317.713 319.641 292.797 319.641 240.959C319.641 239.787 319.712 234.032 319.736 228.754L270.671 233.486Z" fill="url(#paint1_linear)"/>
</g>
<path d="M127.619 164.082C127.619 182.257 112.892 196.98 94.723 196.98C76.5628 196.98 61.832 182.257 61.832 164.082C61.832 145.918 76.5628 131.203 94.723 131.203C112.892 131.203 127.619 145.918 127.619 164.082Z" fill="white"/>
<path d="M119.703 166.033C119.703 178.088 109.932 187.859 97.8679 187.859C85.8094 187.859 76.0325 178.088 76.0325 166.033C76.0325 153.977 85.8094 144.197 97.8679 144.197C109.932 144.197 119.703 153.977 119.703 166.033Z" fill="#414042"/>
<path d="M172.1 199.973C166.252 199.973 161.512 195.663 161.512 190.35V160.066C161.512 154.758 166.252 150.443 172.1 150.443C177.948 150.443 182.699 154.758 182.699 160.066V190.35C182.699 195.663 177.948 199.973 172.1 199.973Z" fill="white"/>
<path d="M216.587 164.082C216.587 182.257 231.313 196.98 249.485 196.98C267.644 196.98 282.374 182.257 282.374 164.082C282.374 145.918 267.644 131.203 249.485 131.203C231.313 131.203 216.587 145.918 216.587 164.082Z" fill="white"/>
<path d="M224.504 166.033C224.504 178.088 234.272 187.859 246.327 187.859C258.395 187.859 268.163 178.088 268.163 166.033C268.163 153.977 258.395 144.197 246.327 144.197C234.272 144.197 224.504 153.977 224.504 166.033Z" fill="#414042"/>
<path d="M319.642 216.976C319.642 216.976 319.151 213.969 318.865 213.996L264.3 219.261C259.958 219.68 256.586 223.143 256.281 227.493L254.782 248.979L212.568 251.991L209.697 232.518C209.058 228.187 205.275 224.922 200.897 224.922H143.307C138.931 224.922 135.149 228.187 134.509 232.518L131.636 251.991L89.4223 248.979L87.9233 227.493C87.6187 223.141 84.2467 219.679 79.9049 219.259L25.3127 213.996C25.0307 213.969 24.8241 216.979 24.5421 216.979L24.4682 228.787L70.7027 236.243L72.2168 257.92C72.5229 262.309 76.0638 265.857 80.4553 266.172L138.593 270.32C138.813 270.335 139.03 270.344 139.248 270.344C143.616 270.344 147.393 267.077 148.032 262.746L150.986 242.71H193.22L196.174 262.746C196.812 267.076 200.593 270.342 204.968 270.342C205.182 270.342 205.396 270.335 205.606 270.32L263.751 266.172C268.141 265.857 271.683 262.309 271.989 257.92L273.502 236.243L319.717 228.754L319.642 216.976Z" fill="white"/>
<g filter="url(#filter2_d)">
<path d="M24.5414 127.938V199.593V208.694V216.976C24.7043 216.978 24.8672 216.984 25.0285 216.999L79.6147 222.262C82.474 222.538 84.715 224.839 84.9141 227.705L86.5971 251.801L134.213 255.198L137.493 232.959C137.918 230.075 140.391 227.938 143.308 227.938H200.898C203.813 227.938 206.287 230.075 206.712 232.959L209.992 255.198L257.609 251.801L259.291 227.705C259.491 224.839 261.731 222.539 264.59 222.262L319.155 216.999C319.317 216.984 319.478 216.978 319.641 216.976V209.872L319.663 209.864V127.938H319.866C327.097 118.709 333.788 108.983 340.205 98.6076C331.683 84.1 321.241 71.1351 310.08 59.1233C299.728 64.3337 289.674 70.2363 280.178 76.5174C275.426 71.7941 270.074 67.9305 264.816 63.8918C259.651 59.7431 253.83 56.7013 248.309 53.1574C249.953 40.9164 250.766 28.8654 251.093 16.2881C236.848 9.11869 221.657 4.36525 206.291 0.950974C200.156 11.2617 194.546 22.4274 189.66 33.3428C183.866 32.3747 178.045 32.0157 172.216 31.9464V31.9373C172.176 31.9373 172.138 31.9464 172.103 31.9464C172.067 31.9464 172.029 31.9373 171.993 31.9373V31.9464C166.154 32.0157 160.337 32.3747 154.542 33.3428C149.659 22.4274 144.052 11.2617 137.908 0.950974C122.549 4.36525 107.357 9.11869 93.1134 16.2881C93.4392 28.8654 94.252 40.9164 95.9004 53.1574C90.3688 56.7013 84.5551 59.7431 79.3885 63.8918C74.1389 67.9305 68.7777 71.7941 64.0243 76.5174C54.5279 70.2363 44.4766 64.3337 34.1222 59.1233C22.961 71.1351 12.5251 84.1 4 98.6076C10.4138 108.983 17.1097 118.709 24.3394 127.938H24.5414Z" fill="url(#paint2_linear)"/>
</g>
<g filter="url(#filter3_d)">
<path d="M270.671 233.486L268.981 257.71C268.777 260.63 266.455 262.954 263.535 263.163L205.391 267.312C205.249 267.323 205.108 267.327 204.967 267.327C202.078 267.327 199.585 265.207 199.158 262.305L195.824 239.693H148.382L145.047 262.305C144.599 265.349 141.879 267.537 138.814 267.312L80.6707 263.163C77.7511 262.954 75.4286 260.63 75.225 257.71L73.5345 233.486L24.4513 228.754C24.4739 234.029 24.5418 239.808 24.5418 240.959C24.5418 292.797 90.3012 317.713 172.003 318H172.102H172.203C253.904 317.713 319.641 292.797 319.641 240.959C319.641 239.787 319.712 234.032 319.736 228.754L270.671 233.486Z" fill="url(#paint3_linear)"/>
</g>
<path d="M127.619 164.082C127.619 182.257 112.892 196.98 94.723 196.98C76.5628 196.98 61.832 182.257 61.832 164.082C61.832 145.918 76.5628 131.203 94.723 131.203C112.892 131.203 127.619 145.918 127.619 164.082Z" fill="white"/>
<path d="M119.703 166.033C119.703 178.088 109.932 187.859 97.8679 187.859C85.8094 187.859 76.0325 178.088 76.0325 166.033C76.0325 153.977 85.8094 144.197 97.8679 144.197C109.932 144.197 119.703 153.977 119.703 166.033Z" fill="#414042"/>
<path d="M172.1 199.973C166.252 199.973 161.512 195.663 161.512 190.35V160.066C161.512 154.758 166.252 150.443 172.1 150.443C177.948 150.443 182.699 154.758 182.699 160.066V190.35C182.699 195.663 177.948 199.973 172.1 199.973Z" fill="white"/>
<path d="M216.587 164.082C216.587 182.257 231.313 196.98 249.485 196.98C267.644 196.98 282.374 182.257 282.374 164.082C282.374 145.918 267.644 131.203 249.485 131.203C231.313 131.203 216.587 145.918 216.587 164.082Z" fill="white"/>
<path d="M224.504 166.033C224.504 178.088 234.272 187.859 246.327 187.859C258.395 187.859 268.163 178.088 268.163 166.033C268.163 153.977 258.395 144.197 246.327 144.197C234.272 144.197 224.504 153.977 224.504 166.033Z" fill="#414042"/>
<g filter="url(#filter4_d)">
<path d="M320 128.756L332 112.018L321.324 122.5L296.674 128.756H47.3764L24.0506 122.5L13.3744 112.018L24.0506 128.756H24V170.092C24 188.778 43.9863 204 68.5265 204H115.33C139.87 204 159.857 188.778 159.857 170.092V142.93H184.144V170.092C184.144 188.778 204.13 204 228.67 204H275.474C300.014 204 320 188.778 320 170.092V128.756Z" fill="url(#paint4_linear)"/>
</g>
<defs>
<filter id="filter0_d" x="0" y="0.950974" width="344.205" height="262.247" filterUnits="userSpaceOnUse" color-interpolation-filters="sRGB">
<feFlood flood-opacity="0" result="BackgroundImageFix"/>
<feColorMatrix in="SourceAlpha" type="matrix" values="0 0 0 0 0 0 0 0 0 0 0 0 0 0 0 0 0 0 127 0"/>
<feOffset dy="4"/>
<feGaussianBlur stdDeviation="2"/>
<feColorMatrix type="matrix" values="0 0 0 0 0 0 0 0 0 0 0 0 0 0 0 0 0 0 0.25 0"/>
<feBlend mode="normal" in2="BackgroundImageFix" result="effect1_dropShadow"/>
<feBlend mode="normal" in="SourceGraphic" in2="effect1_dropShadow" result="shape"/>
</filter>
<filter id="filter1_d" x="20.4513" y="228.754" width="303.285" height="97.2462" filterUnits="userSpaceOnUse" color-interpolation-filters="sRGB">
<feFlood flood-opacity="0" result="BackgroundImageFix"/>
<feColorMatrix in="SourceAlpha" type="matrix" values="0 0 0 0 0 0 0 0 0 0 0 0 0 0 0 0 0 0 127 0"/>
<feOffset dy="4"/>
<feGaussianBlur stdDeviation="2"/>
<feColorMatrix type="matrix" values="0 0 0 0 0 0 0 0 0 0 0 0 0 0 0 0 0 0 0.25 0"/>
<feBlend mode="normal" in2="BackgroundImageFix" result="effect1_dropShadow"/>
<feBlend mode="normal" in="SourceGraphic" in2="effect1_dropShadow" result="shape"/>
</filter>
<filter id="filter2_d" x="0" y="0.950974" width="344.205" height="262.247" filterUnits="userSpaceOnUse" color-interpolation-filters="sRGB">
<feFlood flood-opacity="0" result="BackgroundImageFix"/>
<feColorMatrix in="SourceAlpha" type="matrix" values="0 0 0 0 0 0 0 0 0 0 0 0 0 0 0 0 0 0 127 0"/>
<feOffset dy="4"/>
<feGaussianBlur stdDeviation="2"/>
<feColorMatrix type="matrix" values="0 0 0 0 0 0 0 0 0 0 0 0 0 0 0 0 0 0 0.25 0"/>
<feBlend mode="normal" in2="BackgroundImageFix" result="effect1_dropShadow"/>
<feBlend mode="normal" in="SourceGraphic" in2="effect1_dropShadow" result="shape"/>
</filter>
<filter id="filter3_d" x="20.4513" y="228.754" width="303.285" height="97.2462" filterUnits="userSpaceOnUse" color-interpolation-filters="sRGB">
<feFlood flood-opacity="0" result="BackgroundImageFix"/>
<feColorMatrix in="SourceAlpha" type="matrix" values="0 0 0 0 0 0 0 0 0 0 0 0 0 0 0 0 0 0 127 0"/>
<feOffset dy="4"/>
<feGaussianBlur stdDeviation="2"/>
<feColorMatrix type="matrix" values="0 0 0 0 0 0 0 0 0 0 0 0 0 0 0 0 0 0 0.25 0"/>
<feBlend mode="normal" in2="BackgroundImageFix" result="effect1_dropShadow"/>
<feBlend mode="normal" in="SourceGraphic" in2="effect1_dropShadow" result="shape"/>
</filter>
<filter id="filter4_d" x="9.37439" y="112.018" width="326.626" height="99.9822" filterUnits="userSpaceOnUse" color-interpolation-filters="sRGB">
<feFlood flood-opacity="0" result="BackgroundImageFix"/>
<feColorMatrix in="SourceAlpha" type="matrix" values="0 0 0 0 0 0 0 0 0 0 0 0 0 0 0 0 0 0 127 0"/>
<feOffset dy="4"/>
<feGaussianBlur stdDeviation="2"/>
<feColorMatrix type="matrix" values="0 0 0 0 0 0 0 0 0 0 0 0 0 0 0 0 0 0 0.25 0"/>
<feBlend mode="normal" in2="BackgroundImageFix" result="effect1_dropShadow"/>
<feBlend mode="normal" in="SourceGraphic" in2="effect1_dropShadow" result="shape"/>
</filter>
<linearGradient id="paint0_linear" x1="4" y1="128.075" x2="340.205" y2="128.075" gradientUnits="userSpaceOnUse">
<stop stop-color="#59C2FF"/>
<stop offset="1" stop-color="#1270E3"/>
</linearGradient>
<linearGradient id="paint1_linear" x1="24.4513" y1="273.377" x2="319.736" y2="273.377" gradientUnits="userSpaceOnUse">
<stop stop-color="#59C2FF"/>
<stop offset="1" stop-color="#1270E3"/>
</linearGradient>
<linearGradient id="paint2_linear" x1="4" y1="128.075" x2="340.205" y2="128.075" gradientUnits="userSpaceOnUse">
<stop stop-color="#59C2FF"/>
<stop offset="1" stop-color="#1270E3"/>
</linearGradient>
<linearGradient id="paint3_linear" x1="24.4513" y1="273.377" x2="319.736" y2="273.377" gradientUnits="userSpaceOnUse">
<stop stop-color="#59C2FF"/>
<stop offset="1" stop-color="#1270E3"/>
</linearGradient>
<linearGradient id="paint4_linear" x1="13" y1="112" x2="332" y2="204" gradientUnits="userSpaceOnUse">
<stop stop-color="#FC60A8"/>
<stop offset="1" stop-color="#CE4BC1"/>
</linearGradient>
</defs>
</svg>
